<?xml version="1.0" encoding="UTF-8"?>
<!-- Generator: Adobe Illustrator 22.1.0, SVG Export Plug-In . SVG Version: 6.00 Build 0)  -->
<svg version="1.1" id="Layer_1" xmlns="http://www.w3.org/2000/svg" xmlns:xlink="http://www.w3.org/1999/xlink" x="0px" y="0px" viewBox="0 0 106.4 47.1" style="enable-background:new 0 0 106.4 47.1;" xml:space="preserve">
<style type="text/css">
	.st0{fill:#811E70;}
	.st1{fill:#AB3593;}
	.st2{fill:#FFFFFF;}
</style>
<g>
	<path class="st0" d="M1.5,35.9H0.8c-0.1,0-0.2,0.1-0.2,0.3v10.2c0,0.2,0.1,0.3,0.2,0.3h0.7c0.2,0,0.2-0.1,0.2-0.3V36.2   C1.8,36,1.7,35.9,1.5,35.9z"/>
	<path class="st0" d="M4.1,35.9c-0.2,0-0.2,0.1-0.2,0.2v7c0,0.2,0.1,0.3,0.2,0.3h0.7c0.2,0,0.2-0.1,0.2-0.3v-7   c0-0.2-0.1-0.3-0.2-0.3H4.1z"/>
	<path class="st0" d="M10.4,42.2c-0.3,0.2-0.8,0.3-1.5,0.3c-0.8,0-1.5,0-1.9-0.1c-0.2,0-0.3,0-0.3,0.2V43c0,0.1,0.1,0.2,0.3,0.3   c0.3,0.1,0.6,0.1,1,0.2c0.3,0,0.7,0.1,1.1,0.1c1.1,0,1.9-0.3,2.3-0.8c0.5-0.6,0.8-1.6,0.8-3.1c0-1-0.1-1.8-0.2-2.3   c-0.1-0.4-0.4-0.8-0.8-1.1C10.7,36,10,35.8,9,35.8c-0.9,0-1.6,0.1-2,0.2c-0.2,0.1-0.3,0.2-0.3,0.3v0.5C6.7,37,6.8,37,7.1,37   c0.3,0,0.5-0.1,0.8-0.1c0.3,0,0.6,0,0.9,0c0.7,0,1.2,0.1,1.5,0.2c0.5,0.2,0.7,0.6,0.7,1.2V41C10.9,41.6,10.8,42,10.4,42.2z"/>
	<path class="st0" d="M13.7,43.4h2.9c0.2,0,0.2-0.1,0.2-0.2V38c0-0.8-0.2-1.3-0.5-1.6c-0.3-0.3-0.8-0.5-1.4-0.5c-0.4,0-0.8,0-1,0.1   c-0.1,0-0.2,0.1-0.2,0.3v0.5c0,0.1,0.1,0.2,0.3,0.1c0.2,0,0.4,0,0.6,0c0.7,0,1,0.3,1,0.8v4.7h-1.9c-0.1,0-0.2,0.1-0.2,0.2v0.6   C13.5,43.4,13.6,43.4,13.7,43.4z"/>
	<path class="st0" d="M25.9,43.4h0.7c0.2,0,0.2-0.1,0.2-0.2v-5.1c0-1.5-1-2.3-2.9-2.3c-1,0-1.8,0.1-2.3,0.2   c-0.2,0.1-0.2,0.2-0.2,0.3v0.4c0,0.2,0.1,0.2,0.3,0.2c0.3,0,0.6-0.1,0.9-0.1c0.3,0,0.6,0,1,0c0.8,0,1.3,0.1,1.6,0.3   c0.3,0.2,0.4,0.5,0.4,0.9v5.2C25.6,43.4,25.7,43.4,25.9,43.4z"/>
	<path class="st0" d="M29.1,43.4h0.7c0.2,0,0.2-0.1,0.2-0.3v-7c0-0.2-0.1-0.3-0.2-0.3h-0.7c-0.2,0-0.2,0.1-0.2,0.2v7   C28.9,43.3,29,43.4,29.1,43.4z"/>
	<path class="st0" d="M37.3,43.4H38c0.2,0,0.2-0.1,0.2-0.3v-5.3c0-0.7-0.2-1.3-0.7-1.6c-0.4-0.3-1.2-0.5-2.3-0.5   c-1.1,0-2.1,0.1-2.9,0.3c-0.2,0-0.2,0.1-0.2,0.3v6.8c0,0.2,0.1,0.2,0.2,0.2H33c0.2,0,0.2-0.1,0.2-0.3V37c0.2,0,0.5-0.1,0.8-0.1   c0.3,0,0.6,0,0.9,0c0.8,0,1.3,0.1,1.6,0.2c0.3,0.1,0.4,0.4,0.4,0.8v5.3C37.1,43.3,37.2,43.4,37.3,43.4z"/>
	<path class="st0" d="M42.7,35.8c-1.2,0-2,0.1-2.5,0.2c-0.1,0-0.2,0.1-0.2,0.3v0.5c0,0.1,0.1,0.2,0.2,0.2c0.4,0,0.7-0.1,1-0.1   c0.3,0,0.6,0,0.9,0c0.6,0,1.1,0,1.3,0.1c0.5,0.1,0.7,0.4,0.7,0.9v4.5H40c-0.1,0-0.2,0.1-0.2,0.2v0.6c0,0.2,0.1,0.2,0.2,0.2h5.8   c0.1,0,0.2-0.1,0.2-0.2v-0.6c0-0.1-0.1-0.2-0.2-0.2h-0.5V38C45.3,36.5,44.4,35.8,42.7,35.8z"/>
	<path class="st0" d="M52.7,35.9h-4.4v-2.2c0-0.2-0.1-0.3-0.2-0.3h-0.7c-0.1,0-0.1,0-0.2,0c0,0-0.1,0.1-0.1,0.2v2.9   c0,0.2,0.1,0.3,0.2,0.3h4.2l-2.3,6.2c-0.1,0.2,0,0.3,0.1,0.3h0.8c0.1,0,0.2-0.1,0.3-0.4l2.4-6.6c0-0.1,0-0.2,0-0.3   C52.9,36,52.8,35.9,52.7,35.9z"/>
	<rect x="3.8" y="46.1" class="st0" width="49.1" height="1"/>
	<path class="st0" d="M5.9,29.8c0.3-2.2,0-5,0-7.1c0-3.3-0.1-6.6,0-10C6,10.9,5.9,9.1,6,7.3c0.8,0,2.1,0,2.9,0.3   c0.7,0.2,0.6,2.1,0.6,2.7c0,1.6,0,3.4-0.1,5.1c-0.1,2.7,0,5.5-0.1,8.3c-0.1,2.2-0.3,4.5,0,6.7c0.2,1.9,3.2,1.6,3-0.3   c-0.1-2.4-0.1-4.6,0-7.1c0.1-2.9,0.3-5.8,0.3-8.7c0-0.6,0-1.2,0-1.8c-0.1-2.4,0.4-5.8-2-7.2C9.5,4.4,7.8,4.2,6.4,4.3   C5.2,4.3,4,4.4,2.9,4.4c-1.1,0-1.6,1.3-1.4,2.2C1.6,7.2,2,7.3,3,7.3c0.1,0,0.3,0,0.5,0c0,2.9-0.5,5.8-0.5,8.7c0,0.6,0,1.2,0,1.8   c0,2.3,0,4.5,0.1,6.8c0,0.9,0.2,1.8,0.2,2.6c0,0.4,0.1,0.8-0.1,1.3c-0.5,0-0.9,0.3-1.3,0.1c-1.5-0.5-2.6,2.3-0.6,2.5   c1.2,0.2,1.9,0,3.1,0.1C5.4,31.4,5.8,30.8,5.9,29.8z"/>
	<path class="st0" d="M16.7,31.3c2.4,0,4.7,0.4,6.9-0.5c0.6-0.3,1.2-0.6,1.8-1.1c2.3-1.9,2.1-5,2.1-7.8c0-2.6,0-5.3,0-7.9   c0.1-2.9,0.2-5.7-0.2-8.6c-0.1-0.7-0.9-1-1.5-1c-0.7,0-1.3,0-2,0c-1,0-1.7,0.4-1.7,1.1c0,1.1,0.5,1.7,1.6,1.7c0.3,0,0.5,0,0.7,0   c0.4,4.1-0.3,8.2-0.1,12.3c0.1,1.4,0.1,2.9,0.1,4.3c0,0.9,0.2,2.2-0.2,3.1c-0.4,0.8-0.5,1.1-1.9,1.4c-0.1-3.2-0.6-6.4-0.9-9.6   c-0.4-4.3-0.5-8.5-0.5-12.9c0-0.8-0.7-1.4-1.5-1.4c-0.7,0-1.5,0-2.2-0.1c-0.9,0-1.6,0.4-1.6,1.1C15.4,6.8,16,7.2,17,7.3   c0.2,0,0.5,0,0.7,0c0,3.7,0,7,0.2,10.6c0.3,3.5,1.1,7.2,1.1,10.7c-0.8-0.1-1.6-0.2-2.4-0.2c-0.8,0-1.4,0.6-1.6,1.2   C14.9,30.5,15.5,31.3,16.7,31.3z"/>
	<path class="st0" d="M30.6,7c0.9,0.1,1.9,0.1,2.7,0.3c0.8,0.2,1.5,0,2.2,0c0.1,0,0.3,0,0.5,0c0.8,3.4,0,7.1,0.1,10.6   c0,1.9,0.2,4.3,0.1,5.7c-0.1,1.1-0.3,2.4-0.3,3.6c0,1.1-0.1,2.2-0.1,3.3c0,0.9,1,1.3,1.7,1.3c0.7-0.1,1-0.6,1.1-1.5   c0.3-2.3,0.3-4.7,0.4-7c0.1-1.8,0.1-3.7,0.1-5.5c0-3.4,0.6-6.5,0.1-9.9c0.3,0,0.5-0.3,0.8-0.4c1.8-0.5,2.2-2.4,0.2-2.5   c-1.4-0.1-2.6-0.3-4.1-0.1c-1.6,0.2-3.1,0-4.7-0.2c-0.7-0.1-1.6,0.2-1.9,1C29.4,6.2,29.9,6.9,30.6,7z"/>
	<path class="st0" d="M51.7,4.6c-1.1,0-2.2,0-3.3,0c-0.5,0-1.1,0-1.6,0c0-0.2,0-0.5,0-0.8c0-0.9-0.1-1.7-0.2-2.6   c0-1.1-0.8-1.4-1.7-1.1c-0.5,0.2-1.3,0.6-1.3,1.2c0,1.6,0.1,3.1-0.1,4.6c-0.1,1.3,1.6,1.3,2.5,1.3c1.4,0,2.9,0,4.3-0.1   c0,0,0.1,0,0.1,0c-0.1,0.5-0.4,1.1-0.5,1.5c-0.5,3.1-0.8,5.8-1.5,8.8c-0.6,2.6-1,5.7-1.5,8.4c-0.3,1.5-0.4,3-0.9,4.4   c-0.7,1.8,2.7,1.5,3.1-0.1c0.3-1.6,0.6-3.1,0.9-4.6c0.5-2.2,0.7-4.8,1.2-7c0.7-2.9,1.2-5.4,1.6-8.3C53.2,8.5,54.8,4.5,51.7,4.6z"/>
	<path class="st0" d="M48.7,0.8c0.1,0,0.2,0,0.3,0c0.1,0,0.2,0,0.4,0c0.3,0,0.5,0,0.6,0.1c0.1,0.1,0.1,0.2,0.1,0.3V3   c0,0.1,0,0.1,0.1,0.1h0.3c0.1,0,0.1,0,0.1-0.1V1.2c0-0.5-0.4-0.8-1.1-0.8c-0.4,0-0.6,0-0.8,0.1c-0.1,0-0.1,0.1-0.1,0.1v0.2   C48.6,0.8,48.6,0.8,48.7,0.8z"/>
	<path class="st0" d="M51.9,1.1c0.2-0.2,0.3-0.4,0.4-0.6l0.1-0.4c0,0,0,0,0,0c0,0,0,0,0,0c0-0.1,0-0.1-0.1-0.1h-0.1   C52.1,0,52,0,52,0.1l-0.3,1c0,0,0,0,0,0.1c0,0,0,0,0.1,0C51.8,1.2,51.8,1.2,51.9,1.1z"/>
	<path class="st0" d="M51.2,1.1c0.2-0.2,0.3-0.4,0.4-0.6l0.1-0.4c0,0,0,0,0-0.1c0-0.1,0-0.1-0.1-0.1h-0.1c-0.1,0-0.1,0-0.2,0.1   l-0.3,1c0,0,0,0,0,0.1c0,0,0,0,0.1,0C51.1,1.2,51.1,1.2,51.2,1.1z"/>
	<path class="st0" d="M54.8,0.4h-0.3c-0.1,0-0.1,0-0.1,0.1l-0.1,1.2c0,0.2-0.1,0.4-0.1,0.5c-0.1,0.1-0.2,0.2-0.3,0.3   c-0.1,0.1-0.2,0.1-0.3,0.2l0,0c0-0.3,0-0.5-0.1-0.7l-0.4-1.5c0-0.1-0.1-0.1-0.1-0.1h-0.3c-0.1,0-0.1,0-0.1,0.1l0.7,2.3l0,0   C53.2,2.9,53,3,52.6,3.2c0,0-0.1,0-0.1,0.1c0,0,0,0,0,0.1l0.1,0.1c0,0,0,0,0.1,0c0,0,0.1,0,0.1,0c0.1,0,0.2-0.1,0.2-0.1   c0.1,0,0.2-0.1,0.3-0.1c0.2-0.1,0.3-0.1,0.4-0.2C53.9,3,54,2.9,54,2.9c0.1-0.1,0.2-0.2,0.3-0.2c0.1-0.1,0.1-0.2,0.2-0.2   c0.1-0.2,0.2-0.4,0.2-0.7L54.8,0.4C54.9,0.4,54.9,0.4,54.8,0.4z"/>
</g>
<path class="st1" d="M106.2,23.6c0,13-10.5,23.5-23.5,23.5S59.2,36.5,59.2,23.6c0-13,10.5-23.5,23.5-23.5S106.2,10.6,106.2,23.6z"/>
<g>
	<path class="st2" d="M89.4,11.4c1-1.6,1.5-3.4,1.5-5.2c-2.8-0.5-5.7,0.7-7.4,3.3c-0.3,0.5-0.6,1.1-0.8,1.7c0.9,1.1,1.5,2.5,1.6,4   C86.4,14.6,88.2,13.3,89.4,11.4z"/>
	<path class="st2" d="M79.2,14.6c1.4,0.9,3,1.1,4.4,0.7c-0.2-2-1.2-3.9-3-5.1c-1.2-0.8-2.5-1.1-3.8-1.1   C76.4,11.2,77.3,13.4,79.2,14.6z"/>
	<path class="st2" d="M98.7,26.8c-0.1-5.8-4.8-10.4-10.7-10.4c-5.9,0-10.7,4.8-10.7,10.7c0,2.6,1,5,2.5,6.9l0.1,0.1l1.6-0.9L81.5,33   c-1.4-1.6-2.3-3.7-2.3-6c0-2.5,1-4.7,2.6-6.3c1.6-1.6,3.8-2.6,6.3-2.6c2.5,0,4.7,1,6.3,2.6c1.6,1.6,2.6,3.8,2.6,6.3s-1,4.7-2.6,6.3   C92.8,35,90.6,36,88.1,36c-0.9,0-1.8-0.1-2.6-0.4l-0.1,0l-0.1,0.1l-1.4,1.2l0.3,0.1c1.2,0.5,2.5,0.7,3.9,0.7   c5.8,0,10.5-4.7,10.7-10.4h0v-0.2L98.7,26.8L98.7,26.8z"/>
	<path class="st2" d="M88,27.3L88,27.3l0-0.2v-0.2h0c-0.1-2.6-1.1-5-2.7-6.9l-0.1-0.1L85,19.9l-1.4,0.8l0.2,0.2   c1.6,1.6,2.4,3.7,2.4,6.1c0,2.5-1,4.7-2.6,6.3C82,35,79.8,36,77.3,36c-2.5,0-4.7-1-6.3-2.6c-1.6-1.6-2.6-3.8-2.6-6.3s1-4.7,2.6-6.3   c1.6-1.6,3.8-2.6,6.3-2.6c0.8,0,1.6,0.1,2.4,0.3l0.1,0l0.1-0.1l1.4-1.2L81,17c-1.2-0.4-2.4-0.7-3.7-0.7c-5.9,0-10.7,4.8-10.7,10.7   c0,5.9,4.8,10.7,10.7,10.7C83.1,37.7,87.8,33.1,88,27.3z"/>
</g>
</svg>