<?xml version="1.0" encoding="UTF-8" standalone="no"?>
<!-- Generator: Adobe Illustrator 22.1.0, SVG Export Plug-In . SVG Version: 6.00 Build 0)  -->

<svg
   xmlns:dc="http://purl.org/dc/elements/1.1/"
   xmlns:cc="http://creativecommons.org/ns#"
   xmlns:rdf="http://www.w3.org/1999/02/22-rdf-syntax-ns#"
   xmlns:svg="http://www.w3.org/2000/svg"
   xmlns="http://www.w3.org/2000/svg"
   xmlns:sodipodi="http://sodipodi.sourceforge.net/DTD/sodipodi-0.dtd"
   xmlns:inkscape="http://www.inkscape.org/namespaces/inkscape"
   version="1.1"
   id="Layer_1"
   x="0px"
   y="0px"
   viewBox="0 0 310 150.10001"
   xml:space="preserve"
   inkscape:version="0.91 r13725"
   sodipodi:docname="Logo-01-BIG.svg"
   width="310"
   height="150.10001"
   inkscape:export-filename="/home/yitz/Documents/עזריאלי/ה'תשע&quot;ט/סמסטר ב/הנדסת תוכנה/פרוייקט/Choose-Right/Ladaat/src/assets/icons/icon-310-150"
   inkscape:export-xdpi="90"
   inkscape:export-ydpi="90"><metadata
     id="metadata59"><rdf:RDF><cc:Work
         rdf:about=""><dc:format>image/svg+xml</dc:format><dc:type
           rdf:resource="http://purl.org/dc/dcmitype/StillImage" /><dc:title /></cc:Work></rdf:RDF></metadata><defs
     id="defs57" /><sodipodi:namedview
     pagecolor="#ffffff"
     bordercolor="#666666"
     borderopacity="1"
     objecttolerance="10"
     gridtolerance="10"
     guidetolerance="10"
     inkscape:pageopacity="0"
     inkscape:pageshadow="2"
     inkscape:window-width="1920"
     inkscape:window-height="1053"
     id="namedview55"
     showgrid="false"
     inkscape:zoom="1.8468045"
     inkscape:cx="69.089755"
     inkscape:cy="-9.580475"
     inkscape:window-x="0"
     inkscape:window-y="27"
     inkscape:window-maximized="1"
     inkscape:current-layer="Layer_1" /><style
     type="text/css"
     id="style3">
	.st0{fill:#811E70;}
	.st1{fill:#AB3593;}
	.st2{fill:#FFFFFF;}
</style><g
     id="g4158"
     transform="matrix(2.9249242,0,0,2.9249242,-0.62695235,-294.95291)"><g
       transform="translate(0,103)"
       id="g5"><path
         style="fill:#811e70"
         inkscape:connector-curvature="0"
         id="path7"
         d="m 1.5,35.9 -0.7,0 c -0.1,0 -0.2,0.1 -0.2,0.3 l 0,10.2 c 0,0.2 0.1,0.3 0.2,0.3 l 0.7,0 c 0.2,0 0.2,-0.1 0.2,-0.3 l 0,-10.2 C 1.8,36 1.7,35.9 1.5,35.9 Z"
         class="st0" /><path
         style="fill:#811e70"
         inkscape:connector-curvature="0"
         id="path9"
         d="m 4.1,35.9 c -0.2,0 -0.2,0.1 -0.2,0.2 l 0,7 c 0,0.2 0.1,0.3 0.2,0.3 l 0.7,0 C 5,43.4 5,43.3 5,43.1 l 0,-7 C 5,35.9 4.9,35.8 4.8,35.8 l -0.7,0 z"
         class="st0" /><path
         style="fill:#811e70"
         inkscape:connector-curvature="0"
         id="path11"
         d="m 10.4,42.2 c -0.3,0.2 -0.8,0.3 -1.5,0.3 -0.8,0 -1.5,0 -1.9,-0.1 -0.2,0 -0.3,0 -0.3,0.2 l 0,0.4 c 0,0.1 0.1,0.2 0.3,0.3 0.3,0.1 0.6,0.1 1,0.2 0.3,0 0.7,0.1 1.1,0.1 1.1,0 1.9,-0.3 2.3,-0.8 0.5,-0.6 0.8,-1.6 0.8,-3.1 0,-1 -0.1,-1.8 -0.2,-2.3 C 11.9,37 11.6,36.6 11.2,36.3 10.7,36 10,35.8 9,35.8 8.1,35.8 7.4,35.9 7,36 6.8,36.1 6.7,36.2 6.7,36.3 l 0,0.5 c 0,0.2 0.1,0.2 0.4,0.2 0.3,0 0.5,-0.1 0.8,-0.1 0.3,0 0.6,0 0.9,0 0.7,0 1.2,0.1 1.5,0.2 0.5,0.2 0.7,0.6 0.7,1.2 l 0,2.7 c -0.1,0.6 -0.2,1 -0.6,1.2 z"
         class="st0" /><path
         style="fill:#811e70"
         inkscape:connector-curvature="0"
         id="path13"
         d="m 13.7,43.4 2.9,0 c 0.2,0 0.2,-0.1 0.2,-0.2 l 0,-5.2 c 0,-0.8 -0.2,-1.3 -0.5,-1.6 -0.3,-0.3 -0.8,-0.5 -1.4,-0.5 -0.4,0 -0.8,0 -1,0.1 -0.1,0 -0.2,0.1 -0.2,0.3 l 0,0.5 c 0,0.1 0.1,0.2 0.3,0.1 0.2,0 0.4,0 0.6,0 0.7,0 1,0.3 1,0.8 l 0,4.7 -1.9,0 c -0.1,0 -0.2,0.1 -0.2,0.2 l 0,0.6 c 0,0.2 0.1,0.2 0.2,0.2 z"
         class="st0" /><path
         style="fill:#811e70"
         inkscape:connector-curvature="0"
         id="path15"
         d="m 25.9,43.4 0.7,0 c 0.2,0 0.2,-0.1 0.2,-0.2 l 0,-5.1 c 0,-1.5 -1,-2.3 -2.9,-2.3 -1,0 -1.8,0.1 -2.3,0.2 -0.2,0.1 -0.2,0.2 -0.2,0.3 l 0,0.4 c 0,0.2 0.1,0.2 0.3,0.2 0.3,0 0.6,-0.1 0.9,-0.1 0.3,0 0.6,0 1,0 0.8,0 1.3,0.1 1.6,0.3 0.3,0.2 0.4,0.5 0.4,0.9 l 0,5.2 c 0,0.2 0.1,0.2 0.3,0.2 z"
         class="st0" /><path
         style="fill:#811e70"
         inkscape:connector-curvature="0"
         id="path17"
         d="m 29.1,43.4 0.7,0 c 0.2,0 0.2,-0.1 0.2,-0.3 l 0,-7 c 0,-0.2 -0.1,-0.3 -0.2,-0.3 l -0.7,0 c -0.2,0 -0.2,0.1 -0.2,0.2 l 0,7 c 0,0.3 0.1,0.4 0.2,0.4 z"
         class="st0" /><path
         style="fill:#811e70"
         inkscape:connector-curvature="0"
         id="path19"
         d="m 37.3,43.4 0.7,0 c 0.2,0 0.2,-0.1 0.2,-0.3 l 0,-5.3 c 0,-0.7 -0.2,-1.3 -0.7,-1.6 -0.4,-0.3 -1.2,-0.5 -2.3,-0.5 -1.1,0 -2.1,0.1 -2.9,0.3 -0.2,0 -0.2,0.1 -0.2,0.3 l 0,6.8 c 0,0.2 0.1,0.2 0.2,0.2 l 0.7,0 c 0.2,0 0.2,-0.1 0.2,-0.3 l 0,-6 c 0.2,0 0.5,-0.1 0.8,-0.1 0.3,0 0.6,0 0.9,0 0.8,0 1.3,0.1 1.6,0.2 0.3,0.1 0.4,0.4 0.4,0.8 l 0,5.3 c 0.2,0.1 0.3,0.2 0.4,0.2 z"
         class="st0" /><path
         style="fill:#811e70"
         inkscape:connector-curvature="0"
         id="path21"
         d="m 42.7,35.8 c -1.2,0 -2,0.1 -2.5,0.2 -0.1,0 -0.2,0.1 -0.2,0.3 l 0,0.5 c 0,0.1 0.1,0.2 0.2,0.2 0.4,0 0.7,-0.1 1,-0.1 0.3,0 0.6,0 0.9,0 0.6,0 1.1,0 1.3,0.1 0.5,0.1 0.7,0.4 0.7,0.9 l 0,4.5 -4.1,0 c -0.1,0 -0.2,0.1 -0.2,0.2 l 0,0.6 c 0,0.2 0.1,0.2 0.2,0.2 l 5.8,0 c 0.1,0 0.2,-0.1 0.2,-0.2 l 0,-0.6 c 0,-0.1 -0.1,-0.2 -0.2,-0.2 l -0.5,0 0,-4.4 c 0,-1.5 -0.9,-2.2 -2.6,-2.2 z"
         class="st0" /><path
         style="fill:#811e70"
         inkscape:connector-curvature="0"
         id="path23"
         d="m 52.7,35.9 -4.4,0 0,-2.2 c 0,-0.2 -0.1,-0.3 -0.2,-0.3 l -0.7,0 c -0.1,0 -0.1,0 -0.2,0 0,0 -0.1,0.1 -0.1,0.2 l 0,2.9 c 0,0.2 0.1,0.3 0.2,0.3 l 4.2,0 -2.3,6.2 c -0.1,0.2 0,0.3 0.1,0.3 l 0.8,0 c 0.1,0 0.2,-0.1 0.3,-0.4 l 2.4,-6.6 c 0,-0.1 0,-0.2 0,-0.3 0.1,0 0,-0.1 -0.1,-0.1 z"
         class="st0" /><rect
         style="fill:#811e70"
         id="rect25"
         height="1"
         width="49.099998"
         class="st0"
         y="46.099998"
         x="3.8" /><path
         style="fill:#811e70"
         inkscape:connector-curvature="0"
         id="path27"
         d="m 5.9,29.8 c 0.3,-2.2 0,-5 0,-7.1 0,-3.3 -0.1,-6.6 0,-10 0.1,-1.8 0,-3.6 0.1,-5.4 0.8,0 2.1,0 2.9,0.3 0.7,0.2 0.6,2.1 0.6,2.7 0,1.6 0,3.4 -0.1,5.1 -0.1,2.7 0,5.5 -0.1,8.3 -0.1,2.2 -0.3,4.5 0,6.7 0.2,1.9 3.2,1.6 3,-0.3 -0.1,-2.4 -0.1,-4.6 0,-7.1 0.1,-2.9 0.3,-5.8 0.3,-8.7 0,-0.6 0,-1.2 0,-1.8 C 12.5,10.1 13,6.7 10.6,5.3 9.5,4.4 7.8,4.2 6.4,4.3 5.2,4.3 4,4.4 2.9,4.4 1.8,4.4 1.3,5.7 1.5,6.6 1.6,7.2 2,7.3 3,7.3 c 0.1,0 0.3,0 0.5,0 0,2.9 -0.5,5.8 -0.5,8.7 0,0.6 0,1.2 0,1.8 0,2.3 0,4.5 0.1,6.8 0,0.9 0.2,1.8 0.2,2.6 0,0.4 0.1,0.8 -0.1,1.3 -0.5,0 -0.9,0.3 -1.3,0.1 -1.5,-0.5 -2.6,2.3 -0.6,2.5 1.2,0.2 1.9,0 3.1,0.1 1,0.2 1.4,-0.4 1.5,-1.4 z"
         class="st0" /><path
         style="fill:#811e70"
         inkscape:connector-curvature="0"
         id="path29"
         d="m 16.7,31.3 c 2.4,0 4.7,0.4 6.9,-0.5 0.6,-0.3 1.2,-0.6 1.8,-1.1 2.3,-1.9 2.1,-5 2.1,-7.8 0,-2.6 0,-5.3 0,-7.9 0.1,-2.9 0.2,-5.7 -0.2,-8.6 -0.1,-0.7 -0.9,-1 -1.5,-1 -0.7,0 -1.3,0 -2,0 -1,0 -1.7,0.4 -1.7,1.1 0,1.1 0.5,1.7 1.6,1.7 0.3,0 0.5,0 0.7,0 0.4,4.1 -0.3,8.2 -0.1,12.3 0.1,1.4 0.1,2.9 0.1,4.3 0,0.9 0.2,2.2 -0.2,3.1 -0.4,0.8 -0.5,1.1 -1.9,1.4 C 22.2,25.1 21.7,21.9 21.4,18.7 21,14.4 20.9,10.2 20.9,5.8 20.9,5 20.2,4.4 19.4,4.4 c -0.7,0 -1.5,0 -2.2,-0.1 -0.9,0 -1.6,0.4 -1.6,1.1 -0.2,1.4 0.4,1.8 1.4,1.9 0.2,0 0.5,0 0.7,0 0,3.7 0,7 0.2,10.6 0.3,3.5 1.1,7.2 1.1,10.7 -0.8,-0.1 -1.6,-0.2 -2.4,-0.2 -0.8,0 -1.4,0.6 -1.6,1.2 -0.1,0.9 0.5,1.7 1.7,1.7 z"
         class="st0" /><path
         style="fill:#811e70"
         inkscape:connector-curvature="0"
         id="path31"
         d="m 30.6,7 c 0.9,0.1 1.9,0.1 2.7,0.3 0.8,0.2 1.5,0 2.2,0 0.1,0 0.3,0 0.5,0 0.8,3.4 0,7.1 0.1,10.6 0,1.9 0.2,4.3 0.1,5.7 -0.1,1.1 -0.3,2.4 -0.3,3.6 0,1.1 -0.1,2.2 -0.1,3.3 0,0.9 1,1.3 1.7,1.3 0.7,-0.1 1,-0.6 1.1,-1.5 0.3,-2.3 0.3,-4.7 0.4,-7 0.1,-1.8 0.1,-3.7 0.1,-5.5 0,-3.4 0.6,-6.5 0.1,-9.9 0.3,0 0.5,-0.3 0.8,-0.4 C 41.8,7 42.2,5.1 40.2,5 38.8,4.9 37.6,4.7 36.1,4.9 34.5,5.1 33,4.9 31.4,4.7 30.7,4.6 29.8,4.9 29.5,5.7 29.4,6.2 29.9,6.9 30.6,7 Z"
         class="st0" /><path
         style="fill:#811e70"
         inkscape:connector-curvature="0"
         id="path33"
         d="m 51.7,4.6 c -1.1,0 -2.2,0 -3.3,0 -0.5,0 -1.1,0 -1.6,0 0,-0.2 0,-0.5 0,-0.8 0,-0.9 -0.1,-1.7 -0.2,-2.6 0,-1.1 -0.8,-1.4 -1.7,-1.1 -0.5,0.2 -1.3,0.6 -1.3,1.2 0,1.6 0.1,3.1 -0.1,4.6 -0.1,1.3 1.6,1.3 2.5,1.3 1.4,0 2.9,0 4.3,-0.1 0,0 0.1,0 0.1,0 -0.1,0.5 -0.4,1.1 -0.5,1.5 -0.5,3.1 -0.8,5.8 -1.5,8.8 -0.6,2.6 -1,5.7 -1.5,8.4 -0.3,1.5 -0.4,3 -0.9,4.4 -0.7,1.8 2.7,1.5 3.1,-0.1 0.3,-1.6 0.6,-3.1 0.9,-4.6 0.5,-2.2 0.7,-4.8 1.2,-7 0.7,-2.9 1.2,-5.4 1.6,-8.3 0.4,-1.7 2,-5.7 -1.1,-5.6 z"
         class="st0" /><path
         style="fill:#811e70"
         inkscape:connector-curvature="0"
         id="path35"
         d="m 48.7,0.8 c 0.1,0 0.2,0 0.3,0 0.1,0 0.2,0 0.4,0 0.3,0 0.5,0 0.6,0.1 0.1,0.1 0.1,0.2 0.1,0.3 l 0,1.8 c 0,0.1 0,0.1 0.1,0.1 l 0.3,0 c 0.1,0 0.1,0 0.1,-0.1 l 0,-1.8 c 0,-0.5 -0.4,-0.8 -1.1,-0.8 -0.4,0 -0.6,0 -0.8,0.1 -0.1,0 -0.1,0.1 -0.1,0.1 l 0,0.2 c 0,0 0,0 0.1,0 z"
         class="st0" /><path
         style="fill:#811e70"
         inkscape:connector-curvature="0"
         id="path37"
         d="m 51.9,1.1 c 0.2,-0.2 0.3,-0.4 0.4,-0.6 l 0.1,-0.4 c 0,0 0,0 0,0 0,0 0,0 0,0 C 52.4,0 52.4,0 52.3,0 L 52.2,0 C 52.1,0 52,0 52,0.1 l -0.3,1 c 0,0 0,0 0,0.1 0,0 0,0 0.1,0 0,0 0,0 0.1,-0.1 z"
         class="st0" /><path
         style="fill:#811e70"
         inkscape:connector-curvature="0"
         id="path39"
         d="m 51.2,1.1 c 0.2,-0.2 0.3,-0.4 0.4,-0.6 l 0.1,-0.4 c 0,0 0,0 0,-0.1 0,-0.1 0,-0.1 -0.1,-0.1 l -0.1,0 c -0.1,0 -0.1,0 -0.2,0.1 L 51,1 c 0,0 0,0 0,0.1 0,0 0,0 0.1,0 0,0.1 0,0.1 0.1,0 z"
         class="st0" /><path
         style="fill:#811e70"
         inkscape:connector-curvature="0"
         id="path41"
         d="m 54.8,0.4 -0.3,0 c -0.1,0 -0.1,0 -0.1,0.1 l -0.1,1.2 c 0,0.2 -0.1,0.4 -0.1,0.5 -0.1,0.1 -0.2,0.2 -0.3,0.3 -0.1,0.1 -0.2,0.1 -0.3,0.2 l 0,0 c 0,-0.3 0,-0.5 -0.1,-0.7 L 53.1,0.5 C 53.1,0.4 53,0.4 53,0.4 l -0.3,0 c -0.1,0 -0.1,0 -0.1,0.1 l 0.7,2.3 0,0 C 53.2,2.9 53,3 52.6,3.2 c 0,0 -0.1,0 -0.1,0.1 0,0 0,0 0,0.1 l 0.1,0.1 c 0,0 0,0 0.1,0 0,0 0.1,0 0.1,0 0.1,0 0.2,-0.1 0.2,-0.1 0.1,0 0.2,-0.1 0.3,-0.1 C 53.5,3.2 53.6,3.2 53.7,3.1 53.9,3 54,2.9 54,2.9 54.1,2.8 54.2,2.7 54.3,2.7 54.4,2.6 54.4,2.5 54.5,2.5 54.6,2.3 54.7,2.1 54.7,1.8 l 0.1,-1.4 c 0.1,0 0.1,0 0,0 z"
         class="st0" /></g><path
       style="fill:#ab3593"
       inkscape:connector-curvature="0"
       id="path43"
       d="m 106.2,126.6 c 0,13 -10.5,23.5 -23.5,23.5 -13,0 -23.5,-10.6 -23.5,-23.5 0,-13 10.5,-23.5 23.5,-23.5 13,0 23.5,10.5 23.5,23.5 z"
       class="st1" /><g
       transform="translate(0,103)"
       id="g45"><path
         style="fill:#ffffff"
         inkscape:connector-curvature="0"
         id="path47"
         d="m 89.4,11.4 c 1,-1.6 1.5,-3.4 1.5,-5.2 -2.8,-0.5 -5.7,0.7 -7.4,3.3 -0.3,0.5 -0.6,1.1 -0.8,1.7 0.9,1.1 1.5,2.5 1.6,4 2.1,-0.6 3.9,-1.9 5.1,-3.8 z"
         class="st2" /><path
         style="fill:#ffffff"
         inkscape:connector-curvature="0"
         id="path49"
         d="m 79.2,14.6 c 1.4,0.9 3,1.1 4.4,0.7 -0.2,-2 -1.2,-3.9 -3,-5.1 -1.2,-0.8 -2.5,-1.1 -3.8,-1.1 -0.4,2.1 0.5,4.3 2.4,5.5 z"
         class="st2" /><path
         style="fill:#ffffff"
         inkscape:connector-curvature="0"
         id="path51"
         d="M 98.7,26.8 C 98.6,21 93.9,16.4 88,16.4 c -5.9,0 -10.7,4.8 -10.7,10.7 0,2.6 1,5 2.5,6.9 l 0.1,0.1 1.6,-0.9 0,-0.2 c -1.4,-1.6 -2.3,-3.7 -2.3,-6 0,-2.5 1,-4.7 2.6,-6.3 1.6,-1.6 3.8,-2.6 6.3,-2.6 2.5,0 4.7,1 6.3,2.6 1.6,1.6 2.6,3.8 2.6,6.3 0,2.5 -1,4.7 -2.6,6.3 -1.6,1.7 -3.8,2.7 -6.3,2.7 -0.9,0 -1.8,-0.1 -2.6,-0.4 l -0.1,0 -0.1,0.1 -1.4,1.2 0.3,0.1 c 1.2,0.5 2.5,0.7 3.9,0.7 5.8,0 10.5,-4.7 10.7,-10.4 l 0,0 0,-0.2 -0.1,-0.3 0,0 z"
         class="st2" /><path
         style="fill:#ffffff"
         inkscape:connector-curvature="0"
         id="path53"
         d="m 88,27.3 0,0 0,-0.2 0,-0.2 0,0 c -0.1,-2.6 -1.1,-5 -2.7,-6.9 l -0.1,-0.1 -0.2,0 -1.4,0.8 0.2,0.2 c 1.6,1.6 2.4,3.7 2.4,6.1 0,2.5 -1,4.7 -2.6,6.3 C 82,35 79.8,36 77.3,36 74.8,36 72.6,35 71,33.4 c -1.6,-1.6 -2.6,-3.8 -2.6,-6.3 0,-2.5 1,-4.7 2.6,-6.3 1.6,-1.6 3.8,-2.6 6.3,-2.6 0.8,0 1.6,0.1 2.4,0.3 l 0.1,0 0.1,-0.1 1.4,-1.2 L 81,17 c -1.2,-0.4 -2.4,-0.7 -3.7,-0.7 -5.9,0 -10.7,4.8 -10.7,10.7 0,5.9 4.8,10.7 10.7,10.7 5.8,0 10.5,-4.6 10.7,-10.4 z"
         class="st2" /></g></g></svg>