<?xml version="1.0" encoding="UTF-8" standalone="no"?>
<!-- Generator: Adobe Illustrator 22.1.0, SVG Export Plug-In . SVG Version: 6.00 Build 0)  -->

<svg
   xmlns:dc="http://purl.org/dc/elements/1.1/"
   xmlns:cc="http://creativecommons.org/ns#"
   xmlns:rdf="http://www.w3.org/1999/02/22-rdf-syntax-ns#"
   xmlns:svg="http://www.w3.org/2000/svg"
   xmlns="http://www.w3.org/2000/svg"
   xmlns:sodipodi="http://sodipodi.sourceforge.net/DTD/sodipodi-0.dtd"
   xmlns:inkscape="http://www.inkscape.org/namespaces/inkscape"
   version="1.1"
   id="Layer_1"
   x="0px"
   y="0px"
   viewBox="0 0 46.999999 47.000002"
   xml:space="preserve"
   inkscape:version="0.91 r13725"
   sodipodi:docname="Logo-purple.svg"
   width="47"
   height="47"><metadata
     id="metadata59"><rdf:RDF><cc:Work
         rdf:about=""><dc:format>image/svg+xml</dc:format><dc:type
           rdf:resource="http://purl.org/dc/dcmitype/StillImage" /><dc:title></dc:title><dc:title></dc:title></cc:Work></rdf:RDF></metadata><defs
     id="defs57" /><sodipodi:namedview
     pagecolor="#ffffff"
     bordercolor="#666666"
     borderopacity="1"
     objecttolerance="10"
     gridtolerance="10"
     guidetolerance="10"
     inkscape:pageopacity="0"
     inkscape:pageshadow="2"
     inkscape:window-width="1920"
     inkscape:window-height="1053"
     id="namedview55"
     showgrid="false"
     inkscape:zoom="3.693609"
     inkscape:cx="7.7233167"
     inkscape:cy="-45.344987"
     inkscape:window-x="0"
     inkscape:window-y="27"
     inkscape:window-maximized="1"
     inkscape:current-layer="Layer_1"
     fit-margin-top="0"
     fit-margin-left="0"
     fit-margin-right="0"
     fit-margin-bottom="0" /><style
     type="text/css"
     id="style3">
	.st0{fill:#811E70;}
	.st1{fill:#AB3593;}
	.st2{fill:#FFFFFF;}
</style><path
     class="st1"
     d="M 47,23.5 C 47,36.5 36.5,47 23.5,47 10.5,47 0,36.4 0,23.5 0,10.5 10.5,0 23.5,0 36.5,0 47,10.5 47,23.5 Z"
     id="path43"
     inkscape:connector-curvature="0"
     style="fill:#ab3593" /><g
     id="g45"
     transform="translate(-59.2,-0.1)"><path
       class="st2"
       d="m 89.4,11.4 c 1,-1.6 1.5,-3.4 1.5,-5.2 -2.8,-0.5 -5.7,0.7 -7.4,3.3 -0.3,0.5 -0.6,1.1 -0.8,1.7 0.9,1.1 1.5,2.5 1.6,4 2.1,-0.6 3.9,-1.9 5.1,-3.8 z"
       id="path47"
       inkscape:connector-curvature="0"
       style="fill:#ffffff" /><path
       class="st2"
       d="m 79.2,14.6 c 1.4,0.9 3,1.1 4.4,0.7 -0.2,-2 -1.2,-3.9 -3,-5.1 -1.2,-0.8 -2.5,-1.1 -3.8,-1.1 -0.4,2.1 0.5,4.3 2.4,5.5 z"
       id="path49"
       inkscape:connector-curvature="0"
       style="fill:#ffffff" /><path
       class="st2"
       d="M 98.7,26.8 C 98.6,21 93.9,16.4 88,16.4 c -5.9,0 -10.7,4.8 -10.7,10.7 0,2.6 1,5 2.5,6.9 l 0.1,0.1 1.6,-0.9 0,-0.2 c -1.4,-1.6 -2.3,-3.7 -2.3,-6 0,-2.5 1,-4.7 2.6,-6.3 1.6,-1.6 3.8,-2.6 6.3,-2.6 2.5,0 4.7,1 6.3,2.6 1.6,1.6 2.6,3.8 2.6,6.3 0,2.5 -1,4.7 -2.6,6.3 -1.6,1.7 -3.8,2.7 -6.3,2.7 -0.9,0 -1.8,-0.1 -2.6,-0.4 l -0.1,0 -0.1,0.1 -1.4,1.2 0.3,0.1 c 1.2,0.5 2.5,0.7 3.9,0.7 5.8,0 10.5,-4.7 10.7,-10.4 l 0,0 0,-0.2 -0.1,-0.3 0,0 z"
       id="path51"
       inkscape:connector-curvature="0"
       style="fill:#ffffff" /><path
       class="st2"
       d="m 88,27.3 0,0 0,-0.2 0,-0.2 0,0 c -0.1,-2.6 -1.1,-5 -2.7,-6.9 l -0.1,-0.1 -0.2,0 -1.4,0.8 0.2,0.2 c 1.6,1.6 2.4,3.7 2.4,6.1 0,2.5 -1,4.7 -2.6,6.3 C 82,35 79.8,36 77.3,36 74.8,36 72.6,35 71,33.4 c -1.6,-1.6 -2.6,-3.8 -2.6,-6.3 0,-2.5 1,-4.7 2.6,-6.3 1.6,-1.6 3.8,-2.6 6.3,-2.6 0.8,0 1.6,0.1 2.4,0.3 l 0.1,0 0.1,-0.1 1.4,-1.2 L 81,17 c -1.2,-0.4 -2.4,-0.7 -3.7,-0.7 -5.9,0 -10.7,4.8 -10.7,10.7 0,5.9 4.8,10.7 10.7,10.7 5.8,0 10.5,-4.6 10.7,-10.4 z"
       id="path53"
       inkscape:connector-curvature="0"
       style="fill:#ffffff" /></g></svg>